<svg version="1.2" xmlns="http://www.w3.org/2000/svg" viewBox="0 0 24 24" width="24" height="24">
	<title>splash (2)-svg</title>
	<style>
		.s0 { fill: none;stroke: #1c274c;stroke-width: 1.5 } 
	</style>
	<path id="Layer" class="s0" d="m12.2 13.2c-0.9 0-1.6-0.8-1.6-1.7 0-0.9 0.7-1.6 1.6-1.6 0.9 0 1.7 0.7 1.7 1.6 0 0.9-0.8 1.7-1.7 1.7z"/>
	<path id="Layer" fill-rule="evenodd" class="s0" d="m13.2 6.1c-0.2-0.1-0.5-0.1-1-0.1-0.5 0-0.8 0-1 0.1-0.2 0.1-0.4 0.3-0.6 0.6q0 0.2 0 0.5c-0.1 0.3-0.2 0.6-0.5 0.7-0.2 0.2-0.6 0.2-0.8 0q-0.3-0.1-0.5-0.2c-0.3 0-0.6 0.1-0.8 0.3-0.2 0.1-0.3 0.3-0.6 0.8-0.2 0.4-0.4 0.6-0.4 0.9 0 0.2 0 0.5 0.2 0.8q0.1 0.1 0.4 0.3c0.3 0.1 0.4 0.4 0.4 0.7 0 0.3-0.1 0.6-0.4 0.8q-0.3 0.1-0.4 0.3c-0.2 0.2-0.2 0.5-0.2 0.8 0 0.2 0.2 0.4 0.4 0.9 0.3 0.4 0.4 0.7 0.6 0.8 0.2 0.2 0.5 0.3 0.8 0.2q0.2 0 0.5-0.2c0.2-0.1 0.6-0.1 0.8 0.1 0.3 0.1 0.4 0.4 0.5 0.7q0 0.3 0 0.5c0.2 0.2 0.4 0.5 0.6 0.6 0.2 0.1 0.5 0.1 1 0.1 0.5 0 0.8 0 1-0.1 0.3-0.1 0.5-0.4 0.6-0.6q0.1-0.2 0.1-0.5c0-0.3 0.1-0.6 0.4-0.7 0.3-0.2 0.6-0.2 0.9-0.1q0.2 0.2 0.4 0.2c0.3 0.1 0.6 0 0.8-0.2 0.2-0.1 0.3-0.4 0.6-0.8 0.3-0.5 0.4-0.7 0.4-0.9 0.1-0.3 0-0.6-0.2-0.8q-0.1-0.2-0.4-0.3c-0.2-0.2-0.4-0.5-0.4-0.8 0-0.3 0.2-0.6 0.4-0.7q0.3-0.2 0.4-0.3c0.2-0.3 0.3-0.6 0.2-0.8 0-0.3-0.1-0.5-0.4-0.9-0.3-0.5-0.4-0.7-0.6-0.8-0.2-0.2-0.5-0.3-0.8-0.3q-0.2 0.1-0.4 0.2c-0.3 0.2-0.6 0.2-0.9 0-0.3-0.1-0.4-0.4-0.4-0.7q0-0.3-0.1-0.5c-0.1-0.3-0.3-0.5-0.6-0.6z"/>
</svg>